# xmcd
#
# Track frame offsets: 
#        150
#        17859
#        33753
#        48346
#        63620
#        79427
#        98274
#        113791
#        127952
#        146780
#        160855
#
# Disc length: 2354 seconds
#
# Revision: 0
# Processed by: cddbd v1.5.2PL0 Copyright (c) Steve Scherf et al.
# Submitted via: ExactAudioCopy v0.99pb5
#
DISCID=8b09300b
DTITLE=Dry Country - Cowboy Up
DYEAR=2010
DGENRE=Country
TTITLE0=Hey Hey Cheers
TTITLE1=Cowboy Up
TTITLE2=Hillbilly Train
TTITLE3=Redneck Song
TTITLE4=We Ain't Messed
TTITLE5=Imperfect
TTITLE6=Drunk On Yer Love
TTITLE7=Dirty Secrets
TTITLE8=Little Girl of Mine
TTITLE9=The Way You Is
TTITLE10=Mexicoma
EXTD=
EXTT0=
EXTT1=
EXTT2=
EXTT3=
EXTT4=
EXTT5=
EXTT6=
EXTT7=
EXTT8=
EXTT9=
EXTT10=
PLAYORDER=
